<?xml version="1.0" encoding="utf-8"?>
<!-- Generator: Adobe Illustrator 22.0.0, SVG Export Plug-In . SVG Version: 6.00 Build 0)  -->
<svg version="1.1" id="Layer_1" xmlns="http://www.w3.org/2000/svg" xmlns:xlink="http://www.w3.org/1999/xlink" x="0px" y="0px"
	 viewBox="0 0 182.1 179.4" style="enable-background:new 0 0 182.1 179.4;" xml:space="preserve">
<style type="text/css">
	.st0{fill:#403736;}
</style>
<g>
	<path class="st0" d="M180.6,85.4c0.6,4.9,1.2,9.8,2,14.7c0.8,4.9,0.5,9.5-0.8,14.3c-3.5,12.4-10.3,22.6-19.7,31.4
		c-5.3,4.9-10.7,9.7-15.1,15.6c-3.9,5.2-9.7,8.1-15.8,10.5c-9.2,3.6-18.9,5.1-28.6,6.8c-7.6,1.3-14.3-2.2-21.1-4.7
		c-3.3-1.2-6.7-2.5-10.1-3.2c-15.4-2.9-29-9.6-41.4-19c-5.1-3.9-9.3-8.6-12.9-14c-3.9-6-6-12.4-5.5-19.6c0.3-4-0.2-8-2.5-11.4
		c-6.4-10-7.8-21-7.7-32.5c0.1-10.3,3.2-19.6,9.4-27.9c3.7-5,6.9-10.4,11-15c5.4-6,11.2-11.7,17.5-16.9c3.6-3,8.2-4.4,13.2-4.7
		C58.7,9.4,64.9,7.8,71,7C82,5.5,92.9,4.2,103.9,3c5.1-0.5,10.2,0.6,14.8,2.9c6.1,3,12.1,6.3,18,9.8c6.4,3.8,12.5,8,18.8,12
		c11,7,18.4,16.3,21.6,29.1C179.2,66.2,181.3,75.6,180.6,85.4z M176.8,90.4c0.4-12.6-2.2-22.8-4.9-33c-3-11.5-9.7-20-19.7-26.1
		c-8-4.9-16-9.8-24-14.5c-3.3-1.9-6.8-3.6-10.3-5.3c-6.7-3.2-13.7-3.8-21-2.9c-11.5,1.5-23,3.1-34.5,4.6c-6.9,0.9-13.4,2.7-19.3,6.5
		c-3.7,2.4-7.5,4.8-11.4,7c-3.5,2-5.8,4.9-7.8,8.2c-2.6,4.3-5.1,8.6-8,12.7C8.8,57.8,5.5,69.2,4.6,81.4c-0.6,8.4,1.1,16,6.2,22.8
		c3.2,4.2,5,9,5.4,14.2c0.5,5.9,2.7,11.1,6.1,15.9c5.2,7.5,11.7,13.7,19.1,19c4.9,3.6,9.9,7.1,16,8.7c7.2,1.8,14.4,3.5,21.7,4.9
		c5.5,1.1,11.2,1.6,16.8,2.6c7.5,1.3,15,1.9,22.6,0.4c11.7-2.2,22.4-6,30-15.8c2.2-2.8,4.6-5.4,7.3-7.7c7.7-6.4,12.1-14.8,15.5-23.8
		C175.5,111.7,176.3,100.1,176.8,90.4z M104.4,176.2c-6.3-1.1-12.6-2.3-18.9-3.4C91.4,176.3,97.6,177.6,104.4,176.2z"/>
	<path class="st0" d="M150,79.6c5-4.8,9.3-5.2,14.4-1.2c1.6,1.3,3.2,2.7,4.5,4.3c3.9,4.8,4.2,9.5,0.7,14.6
		c-2.7,3.9-5.4,7.7-6.9,12.2c-0.7,2.2-2.9,4-4.6,6.1c2.2,3.3,3.7,7.3,3.3,11.7c-0.1,1.7-0.7,3.4-0.9,5.2c-0.1,1.3,0,2.5,0,4.4
		c-3.3,1.9-7.2,4.2-11,6.6c-1,0.7-1.9,1.9-2.4,3c-1.7,3.9-4.6,6.5-8.2,8.4c-3,1.6-6.2,2.8-9.3,4.2c-3.1,1.4-6.2,2.7-9.3,4
		c-0.8,0.4-1.6,0.7-2.5,1c-7,2.5-12.9,0-15.6-6.8c-0.9-2.3-1.3-4.7-2.1-7.6c-0.6,1.4-1.1,2.4-1.6,3.4c-2,4-5.2,5.9-9.7,5.5
		c-1.8-0.2-3.5-0.5-5.3-0.8c-6-1.1-12-2-18-3.4c-3.2-0.7-6.2-2-9.2-3c-2.7-0.9-5.3-2-8-2.5c-6-1-13.5-7.7-14.7-13.5
		c-0.9-4.3,0.5-6.8,4.6-8.2c7.5-2.6,14.3-6.5,20.7-11c2.4-1.7,4.6-3.7,7.1-5.3c2.3-1.4,3.6-4.5,7.2-3.8c0.8,0.2,2-1.5,3.2-2
		c-1.6,4-4.6,7-8.1,9.4c-1,0.7-2,1.2-3,2c-2.8,2.2-4.4,4.9-3.6,8.7c-3.4-0.8-1.7-3.6-2.9-5.4c-2.3,1.5-4.5,3-6.9,4.7
		c0.7,0.4,1.2,0.7,1.9,1.1c-4.6,4-11.9,5.5-12.8,12.8c2.9,1.6,2.9,1.6,6.5,1.9c-2.1,0.4-4.1,0.8-6.4,1.2c1.4,2.3,3.7,3.6,6.3,3.9
		c4.3,0.5,8,2.1,11.7,4c3.1,1.6,6.6,2.3,9.8,3.4c0.4-3,0.3-5.6,1.2-7.8c0.8-2.2,2.7-4,4.7-5.5c-1.1,2.4-2.2,4.7-3.2,7.1
		c-0.5,1.2-1,2.8,0.6,3.5c0.8,0.3,2.3-0.3,3.2-0.8c1.2-0.7,2.2-1.7,3.8-3.1c-0.8,3.7-3.3,5.1-6.2,7.1c5.2,1,9.6,2,14.1,2.6
		c5.3,0.6,7.9-1.4,8.7-6.6c1.3-8.7,2.6-17.4,3.3-26.2c0.3-3.2-1.2-6.6-1.8-9.9c-0.5-2.7-1.1-5.4-1.3-8.2c-0.1-2,0.7-3.7,2.7-4.7
		c3.2-1.8,5.6-1.2,6.7,2.2c2.7,8.7,5,17.4,1.7,26.7c-2.2,6-3.8,12.4-3.7,18.9c0,1-0.1,2.1,0.1,3.1c1.6,11,9.1,13.6,18.5,9
		c0.4-0.2,1-0.4,1.1-0.7c1.9-4.6,6.6-5.3,10.4-6.8c5.2-2,9.5-4.8,12.3-9.6c0.6-1.1,1.9-1.9,2.7-2.8c1.7-2,3.6-3.9,5.1-6.1
		c2.3-3.4,2.5-7.2,1.2-11c-1-2.8-2.6-4.9-5.9-5.2c-4.3-0.4-8.6-0.9-12.8-1.6c-8.3-1.3-15-5.5-20.4-11.8c-1.1-1.3-1.7-3-2.7-4.5
		c-0.6-0.9-1.3-1.8-1.9-2.8c-0.6-1.1-1.5-2.3-1.4-3.4c0.1-1.7,1.5-3,3.3-3.1c2.4-0.1,4.9-0.2,7,0.6c10.3,3.9,20.8,7.6,28.2,16.3
		c0.2,0.2,0.4,0.4,0.6,0.6c4.2,4,7.9,3.2,9.6-2.4c1.2-3.7,2.9-7,5.5-10c4.3-5,3-9-0.2-13.1c-0.1-0.1-0.2-0.2-0.3-0.4
		c-4.8-5.5-5.5-7.1-13-3.3C150.5,79.5,150.2,79.5,150,79.6L150,79.6z M144.8,110.7c-5.8-7.2-24-15.9-30.5-14.8
		C114.1,103.8,130.8,112.1,144.8,110.7z M103,100.7c-4.7,1.4-5.5,2.1-5.3,6.1c0.2,2.9,0.8,5.8,1.8,8.5c1.3,4.1,2.2,8.2,2.1,12.5
		c-0.1,2.2,0.1,4.4,0.2,6.6C107.7,123.3,107.5,112.1,103,100.7z M38.1,137.8c2.2-3.1,4.3-5.9,6.7-9.1c-1.8,0.9-3.3,1.6-4.9,2.4
		C36.3,133.1,36.1,134.1,38.1,137.8z"/>
	<path class="st0" d="M149.9,79.6c-5.7,4.7-12.7,6.3-19.6,7.8c-4.8,1.1-9.6,2.2-14.6,1.1c-1.2-0.3-2.4-0.5-3.4-1
		c-3.9-1.7-5.2-6-2.3-9c2-2.2,4.8-4.1,7.6-5c3.9-1.2,8.1-1.7,12.3-1.9c6.4-0.4,12.6-1.6,19-3.7c-1-0.6-1.6-0.9-2.4-1.4
		c1.3-0.7,2.4-1.4,3.6-2.1c0.5,0.7,0.9,1.3,1.1,1.7c0.7-0.2,1-0.3,1.2-0.4c7.2-4.1,5.6-16-0.3-20.2c-1.1-0.8-2.2-1.6-3.4-2
		c-3.4-1.3-5.6-3.6-7.3-6.8c-1.1-2-2.7-3.7-4.5-6.2c-0.4,2.1-0.7,3.4-0.9,4.7c-0.2,0-0.5,0.1-0.7,0.1c-0.4-1.3-0.9-2.5-1-3.8
		c-0.1-0.9-3.3-1.9,0.1-2.6c-4.7-5.6-14.2-4.4-16.8,2.1c-0.3,0.8-0.7,1.7-0.8,2.5c-1.4,9.1-5.7,17.2-9.1,25.7
		c-0.7,1.8-2.1,3.5-3.5,5c-1.1,1.2-2.7,1.7-4.8,0.1c3.6-2.1,4.5-5.5,5.8-8.8c1.3-3.3,2.9-6.4,4.3-9.7c1.4-3.5,2.7-7.1,4-10.7
		c0.2-0.4,0.2-0.9,0.3-1.3c2.2-9,7.1-12.2,16.4-10.6c1.7,0.3,3.5,1.1,4.7,2.3c2.9,2.9,5.9,5.9,8.2,9.2c1.9,2.8,3.9,4.9,7.3,6.1
		c6.3,2.2,10,6.8,11,13.3c1.4,8.7-2.9,15.6-11.9,18.7c-6.1,2.1-12.4,3.3-18.8,3.3c-3.4,0-6.9,0.2-10.2,0.9c-2.4,0.5-4.8,1.6-6.8,3
		c-2.5,1.7-2.2,4.4,0.6,5.4c2.2,0.8,4.6,1.2,7,1.2c8.6-0.1,16.8-2,24.6-5.6C147.2,80.5,148.6,80.1,149.9,79.6
		C150,79.6,149.9,79.6,149.9,79.6z"/>
	<path class="st0" d="M75.5,99.8c-1.6,1.7-3.1,3.5-4.8,4.9c-7,5.9-14.1,11.8-22.4,16c-4.2,2.1-8.7,3.8-13.3,5
		c-4.4,1.2-8.6,0-12.3-2.7c-2.8-2-4.5-4.7-4.5-8.2c0-5-0.2-10,0.1-14.9c0.2-3.9-0.9-7.2-3.4-10.1c-1.3-1.6-2.6-3.2-3.6-5
		c-3-5.6,2.2-13.3,8.6-13c0.6,0,1.2,0.6,1.5,0.8c-2.3,1.5-4.7,2.7-6.6,4.4c-2.5,2.3-2.5,4.3-0.5,7c0.3,0.5,0.7,1,1.1,1.4
		c5.5,4.9,7.2,11.2,7.1,18.3c0,3.2,0.6,6.4,0.8,9.6c0.3,4.3,2.9,6.6,6.6,8c5.2,1.9,10.4,1.2,15.2-1c4.5-2.1,9-4.7,13-7.6
		c5.7-4.2,11-9,16.5-13.5C75,99.3,75.2,99.6,75.5,99.8z"/>
	<path class="st0" d="M52.2,29.2c-1.3,1.2-2.7,2.5-3.9,3.6c-0.5-3.3,0.2-4.3,5.8-8.1c0-0.9-0.1-1.8-0.1-2.7c0.7,0.2,1.4,0.3,2.1,0.6
		c0.6,0.2,1.2,0.8,1.7,0.7c2.5,0,5.1-0.2,7.6-0.3c2.7-0.1,4.8-1.5,6.5-3.5c6.4-7.8,15.3-9.2,24.5-9.3c5.1,0,9.1,2.4,11.8,6.8
		c5.1,8.4,5.1,17,1.2,25.7c-2,4.5-4.6,8.8-7.8,13c0.2-0.9,0.4-1.9,0.6-2.8c1.6-5.6,3.3-11.2,4.8-16.9c1.4-5.2,0.3-10.2-1.5-15.1
		c-1.8-4.9-5.3-7.7-10.7-7.8c-8.5-0.2-16.4,1.2-22.4,7.8c-2.7,2.9-6.2,3.8-10.1,3.9c-4,0.2-7.5,1.4-10.2,4.5L52.2,29.2z"/>
	<path class="st0" d="M34.6,71.2c-5.1,0.4-10.1,0.5-15-1.2c-4.6-1.6-5.8-3.6-4.6-8.3c0.5-2,1-4,1.1-6c0.1-3.8,1.4-7.1,3.7-10.2
		c3.6-4.8,8.1-8.6,13.5-11.3c4.4-2.2,8.3-1.5,11.9,2.1c-1.7,0-3.1-0.1-4.5,0c-1.9,0.2-4,0-5.6,0.8C29.5,40,24.9,44,21.9,49.4
		c-0.9,1.6-1.3,3.5-1.8,5.4c-0.7,2.7-1.1,5.4-1.8,8.1c-0.6,2.6-0.3,3.3,2.1,4.5c3.4,1.7,6.9,2.5,10.8,2.5
		C32.4,70,34.1,69.1,34.6,71.2L34.6,71.2z"/>
	<path class="st0" d="M89.8,76c-2.7-4.5-5.5-8.9-8.3-13.4c-2.1-3.4-3.7-7-3.6-11.1c0.1-1.5,0.2-3,1.9-3.7c1.8-0.7,3.3,0,4.3,1.4
		c1.8,2.3,3.5,4.7,4.9,7.3c2.5,4.6,3.1,9.7,3.1,14.9c-2.5-7.7-4.3-15.7-10.8-21.8c-1.9,2.7-1,5.2-0.1,7.3c1.5,3.3,3.5,6.4,5.3,9.6
		c1.2,2.2,2.5,4.3,3.7,6.5C91,74.1,90.8,74.2,89.8,76z"/>
	<path class="st0" d="M54.2,42.4C70.3,47.3,80,58.1,84.5,73.7c-1.3-1.5-2.6-3-3.8-4.6c-1.2-1.7-2.4-3.4-3.4-5.2
		c-4.6-8.1-11.8-13.4-19.2-18.6C56.8,44.4,55.5,43.4,54.2,42.4z"/>
	<path class="st0" d="M124.8,68.5c3.8-1.5,7.6-3,11.3-4.6c0.2-0.1,0.1-0.8,0.2-1.4c-6.6-2.2-11.1,2.7-16.4,4.5
		c3.5-3.4,7.3-6.2,12.4-6.7c2.8-0.3,5.5-0.2,6.3,3.4c4.4-0.7,8.3-1.9,11.8-4.3c1-0.7,2.1-2.1,2-3c-0.3-1.8-2.3-1.5-3.7-1.4
		c-1.4,0.1-2.8,0.4-4.3,0.4c2.1-1.8,4.5-1.9,7-1.5c2.7,0.4,3.7,2.7,2,4.8c-1.1,1.3-2.6,2.4-4.2,3.1c-1.8,0.9-3.9,1.4-5.9,1.9
		c-2.6,0.6-5,1.3-7.4,2.7C132.5,68.3,128.6,68.7,124.8,68.5z"/>
	<path class="st0" d="M60.9,96.4c-3.2,1.8-6.6,2.8-10.2,2.3c-2.1-0.3-4.2-0.9-4.8-3.3c-0.6-2.2,0.3-4.1,2-5.5c1.4-1.1,3-2,4.6-2.4
		c2-0.5,4.1-0.5,6.2-0.3c5.9,0.5,11.8,1.2,18.3,1.8c-1.5,0.4-2.7,1.1-3.9,1.1c-3.6,0-7.1-0.2-10.7-0.4c-2.7-0.1-5.3-0.4-8-0.4
		c-2.4,0-4.3,1.1-5.7,2.9c-1.6,2.2-1.1,4.1,1.6,4.5c2.6,0.4,5.3,0.1,8,0C59.2,96.6,60.1,96.5,60.9,96.4z"/>
	<path class="st0" d="M72.6,137.1c-0.4,0.6-0.8,1.2-1.3,1.7c-1.4,1.5-2.8,2.7-5.1,1.9c-2-0.7-3.3-2.6-3.3-5.3
		c0-3.9,1.2-7.6,3.8-10.6c2.1-2.5,4.6-4.6,6.9-6.9c3.2-3.2,6.4-6.4,9.4-9.5c0.6,2.3,0.8,2.7-1.2,4.7c-2.7,2.7-5.7,5.1-8.6,7.7
		c-2.2,2-4.4,4-6.3,6.2c-1.8,2.2-2.4,5-2.2,7.9c0.3,4.1,2.5,5.1,5.9,2.9c0.5-0.3,0.9-0.7,1.4-1.1C72.2,136.8,72.4,136.9,72.6,137.1z
		"/>
	<path class="st0" d="M40.6,82.1c-3-1.4-4-2.7-3.6-5c0.3-2.3,2.1-3,4-3.4c3.5-0.8,7.1-1.4,10.3,0.9c0.6,0.5,1.1,0.9,1.7,1.4
		c5,2.4,10,4.8,15,7.2c-0.1,0.2-0.1,0.5-0.2,0.7c-1.9-0.5-3.8-0.9-5.6-1.6c-3.3-1.3-6.4-3-9.8-4.2c-3.2-1.1-6.5-2-9.8-2.5
		c-1.2-0.2-3.2,0.5-3.8,1.4c-0.5,0.9,0.5,2.6,0.9,3.9C39.9,81.3,40.2,81.7,40.6,82.1L40.6,82.1z"/>
	<path class="st0" d="M38.4,85.4c-2.9-0.2-5.9-0.5-8.8-0.7c-0.9-0.1-1.8,0-2.7,0.2c-2.2,0.6-2.7,2.8-0.8,3.9c1.7,1,3.8,1.6,5.8,1.8
		c2.9,0.3,5.9,0.1,9.7,0.1c-4.8,2.4-11.9,2.3-15.8,0.1c-2.6-1.5-3.7-3.2-3.1-5.2c0.5-2,2.9-3.6,5.7-3.3c3.5,0.5,6.9,1.4,10.3,2.2
		C38.6,84.9,38.5,85.1,38.4,85.4z"/>
	<path class="st0" d="M41.6,110.7c2,0.7,3.9,1.3,6.2,2c-1.4,0.1-2.6,0.5-3.5,0.2c-1.5-0.4-3.2-1-4.1-2.1c-1.2-1.5-0.5-3.6,0.8-4.8
		c1.6-1.5,3.4-3,5.4-3.6c5-1.5,10.2-2.5,15.5-3.4c-1.7,2.3-4.3,2.8-6.8,3.4c-2.6,0.7-5.3,1-7.8,1.9
		C44.7,105.2,42.2,106.6,41.6,110.7z"/>
	<path class="st0" d="M120.2,38c1.1-1.2,2-2.5,3.2-3.4c0.8-0.6,2.7-0.9,3.2-0.4c0.8,0.7,1.1,2.2,1.1,3.4c0,1.1-0.6,2.2-1.1,3.7
		c1.7-0.8,2.9-1.6,4.2-1.8c1-0.2,2.4-0.1,3.2,0.5c0.5,0.4,0.6,1.9,0.3,2.8c-0.4,1.2-1.3,2.2-2.5,3c0.6-1.5,1.2-3,1.8-4.5
		c-3.7-0.8-3.7-0.8-10.1,6.9c-1.1-1.2-1.3-2.4-0.2-3.8c1-1.4,1.9-3,2.6-4.6c0.6-1.4,0.8-2.9,1.1-4.5C123.3,33.9,122.4,37.4,120.2,38
		L120.2,38z"/>
	<path class="st0" d="M93.3,58.4c-2.6-5.4-4.7-11-4.4-17c0-1,0.8-2.4,1.6-2.7c0.8-0.4,2.3,0.1,3.2,0.6c2,1.2,3,3.6,3.8,8.3
		c-1.9-2.7-2.2-6.5-6.5-7.4C89.4,46.7,93.8,52.3,93.3,58.4z"/>
	<path class="st0" d="M118.2,62c0.5-1.8,1-3.7,1.6-6c-4.2,0.3-6.4,2.3-8.1,4.9c-1.3,2-2.3,4.1-3.7,6c-0.9,1.2-2.1,2.1-3.2,3.1
		c-0.3-0.3-0.6-0.5-0.9-0.8c2.8-3.8,5.3-7.8,8.4-11.4c1.2-1.5,3.3-2.5,5.2-3.1c2.9-0.9,4.4,0.7,3.5,3.5c-0.4,1.5-1.5,2.7-2.3,4.1
		C118.6,62.2,118.4,62.1,118.2,62z"/>
	<path class="st0" d="M125,60.1c2.4-1.2,4.8-2.4,7.3-3.6c1.6-0.8,3.3-1.3,4.9-2.2c1.7-1,3.1-2.3,2.7-4.7c-3.5-1.6-6.2,0.8-9.3,1.4
		c2.1-1.9,4.6-3.1,7.5-3.2c2.8-0.1,4.4,1.7,3.3,4.2c-0.8,1.7-2.3,3.6-4,4.4c-3.8,1.9-7.9,3.1-11.9,4.6
		C125.3,60.7,125.1,60.4,125,60.1z"/>
	<path class="st0" d="M58,50.9c3.4-1.2,5.5-0.4,7.1,1.1c1.9,1.8,3.6,3.9,5,6c2.1,3.3,3.9,6.8,5.9,10.4c-3.1-2.1-5-4.9-6.7-7.9
		C66.9,56.3,63.9,52.7,58,50.9z"/>
	<path class="st0" d="M67.7,28.4c-1.9-0.5-3-0.7-4.6-1.1c-0.2,1.2-0.7,2.3-0.6,3.4c0.3,4.2,2,7.9,4.8,11.1c1.6,1.9,3.4,3.7,4.9,5.7
		c-2.4-0.9-4.2-2.8-5.9-4.7c-3-3.4-4.8-7.3-5.3-11.8c-0.2-1.8-0.4-3.6,1.3-4.8C63.5,25.4,64.7,25.9,67.7,28.4z"/>
	<path class="st0" d="M87.2,30.4c-3-4-3.8-7.8-4-11.7c-0.1-1.9,0.7-3.5,2.7-4.1c2.1-0.6,3.5,0.7,4.3,2.3c0.8,1.6,1.1,3.5,1.5,5.3
		c-2-1.7-1.6-5.8-5.8-5.4C83.9,21.4,86.5,25.5,87.2,30.4z"/>
	<path class="st0" d="M74,75c-1.4-1.6-3-3.1-4.3-4.8c-1.2-1.5-2.1-3.2-3.1-4.8c-3-4.4-6.9-7.5-12.6-8.1c3.4-1.1,6.3-0.1,8.6,1.8
		c2.1,1.8,3.9,3.9,5.6,6.1c2.3,3,4.2,6.2,6.3,9.3C74.3,74.7,74.2,74.8,74,75z"/>
	<path class="st0" d="M113.7,159.3c-6.5,1-9.3-3.4-7.7-13.5c0.7,2.5,1,5.2,2.2,7.4C109.6,155.4,111.8,157.2,113.7,159.3z"/>
	<path class="st0" d="M37.5,46.7c0.3-3.5,0.9-4.4,3.8-4.5c2.8-0.2,5.4,0.4,7.4,2.4c1.7,1.7,3.2,3.7,4.8,5.5
		c-0.3,0.3-0.5,0.6-0.8,0.8c-0.9-0.9-1.8-1.8-2.9-2.6c-1.7-1.3-3.4-2.9-5.4-3.7C41.1,43.2,39.7,43.8,37.5,46.7z"/>
	<path class="st0" d="M103.7,94.4c2.5,0.6,4.2,2.2,5.1,4.3c1.4,3,2.4,6.1,3.1,9.6c-1.1-1.2-2.5-2.3-3.3-3.7
		C106.9,101.4,105.5,98,103.7,94.4z"/>
	<path class="st0" d="M136.8,147c-7.3-0.4-10.4-6.1-9.5-17.6c0.3,1.8,0.5,3.7,1,5.5c0.8,2.6,1.5,5.3,2.7,7.8
		C132.2,144.9,134.2,146.6,136.8,147z"/>
	<path class="st0" d="M53,75.9c-0.6-0.5-1.1-0.9-1.7-1.4c2.5,0.3,4.9,0.5,7.4,1c4.6,0.8,9.3,1.8,14.3,2.7c-1.7,1.3-3.3,0.9-4.8,0.7
		c-3.8-0.7-7.6-1.6-11.3-2.3C55.6,76.3,54.3,76.1,53,75.9z"/>
	<path class="st0" d="M146.3,91.3c1.3-0.1,2.5,0.3,2.3,1.7c-0.1,0.8-1,1.9-1.7,2.2c-4.5,1.5-9.1,1.5-13.6-0.7c2.6,0,5.3,0.1,7.9,0
		c1.7-0.1,3.5-0.4,5.2-1C147.5,93,147.7,92,146.3,91.3L146.3,91.3z"/>
	<path class="st0" d="M159.4,41.8c7.2,4.7,9.8,10.8,9.1,18.2c-0.5-2.1-0.8-4.2-1.5-6.2c-0.7-2.1-1.4-4.2-2.5-6
		C163.3,45.9,161.5,44.3,159.4,41.8z"/>
	<path class="st0" d="M126.6,144.8c1.9,1.8,2.6,4.1,2.1,6.6c-0.5,2.3-2.4,3.2-4.3,1.8c-1.3-1-2.2-2.6-2.7-4.3
		c1.3,1.2,2.7,2.3,4.2,3.6C128.6,149.8,126.5,147.4,126.6,144.8z"/>
	<path class="st0" d="M28.9,104.2c-0.8-0.2-2-0.2-2.4-0.8c-1-1.2-2.4-2.7-2.2-3.9c0.2-1.2,2-2.8,3.3-2.9c3.3-0.4,6.7-0.1,10.1,0.1
		c-4,1.2-8.6-0.6-12.5,3C26.5,101.2,27.6,102.7,28.9,104.2L28.9,104.2z"/>
	<path class="st0" d="M116.4,83.6c5.1-0.6,10.3-1.2,14.9-1.7C127.6,85.2,121.4,86,116.4,83.6z"/>
	<path class="st0" d="M57.6,133.3c-1.3,4.1-5.9,6.5-3.4,11c-2,0.3-3-0.4-3-2C51.1,138.1,53.1,135.2,57.6,133.3z"/>
	<path class="st0" d="M118.6,143.2c0.3,1.5,0.7,3,0.7,4.6c0.1,2.3-0.5,4.6-2.9,5.4c-2.7,0.9-4.3-0.9-5.6-2.7c1.7,0.4,3.6,1.6,5,1.2
		c2.3-0.7,1.9-3.3,1.9-5.3c0-1-0.1-2-0.1-3C118,143.2,118.3,143.2,118.6,143.2z"/>
	<path class="st0" d="M146.3,91.3c0.3-0.6,0.5-1.5,1-1.7c2.7-1.1,5.5-1.9,8.1-3.1c1.6-0.8,2.8-2.2,4.6-3.7c-0.7,1.4-1.3,2.7-1.9,4
		l0,0c-2.4,0.9-4.8,1.7-7.1,2.6C149.5,90,147.9,90.7,146.3,91.3L146.3,91.3z"/>
	<path class="st0" d="M92.8,124.4c2.5,4.1,1.9,8.7-1.7,12.5C91.7,132.8,92.3,128.5,92.8,124.4z"/>
	<path class="st0" d="M76.9,34.2c2.7,4.1,5.5,8.3,8.3,12.6C81.6,44.9,78.1,39.8,76.9,34.2z"/>
	<path class="st0" d="M158.2,86.8c1.2,0,2.4-0.1,3.6-0.1c1.6,0,3.1,0.4,3.5,2.1c0.5,2-1,3.1-2.6,3.5c-3,0.7-6.1,1.1-9.2,0.9
		c1.9-0.4,3.8-0.6,5.6-1.2c1.8-0.5,3.5-1.4,5.3-2.2C163.1,86.3,160.2,87.6,158.2,86.8C158.2,86.8,158.2,86.8,158.2,86.8z"/>
	<path class="st0" d="M89.2,140.8c0.4,2.3,0.9,4.5,1.3,6.9c-1.6,1.3-2.7,0.7-3.4-0.9C86.2,144.6,87.1,142,89.2,140.8z"/>
	<path class="st0" d="M98.6,24.9c-2.6-0.8-3.5,0.5-3.6,2.6c-0.2,1.9-0.2,3.8-0.8,5.8c-1.1-2.5-1.2-5.1-0.3-7.7
		C94.8,23.3,96.1,23,98.6,24.9z"/>
	<path class="st0" d="M136.1,127.1c2.8,3.1,5.7,5.8,10.9,6C142,135,139,133.3,136.1,127.1z"/>
	<path class="st0" d="M88.6,89.2c-3.5,5-4.5,5.7-9.4,6.6c2.1-1.5,3.6-2.5,5-3.5C85.7,91.3,87.2,90.2,88.6,89.2z"/>
	<path class="st0" d="M79.9,79.6c1.5-1.1,2.4-1.8,3.4-2.4c0.5-0.3,1.6-0.4,1.9-0.1c0.4,0.4,0.6,1.3,0.5,1.9
		C85.1,81.1,83.6,81.5,79.9,79.6z"/>
	<path class="st0" d="M140,136.7c2.3,1.1,4.2,2,6.4,3.1c-0.5,1.4-1.9,1.6-3.3,1.2C141.2,140.4,140,139.1,140,136.7z"/>
	<path class="st0" d="M108.9,145.6c-1.4-4-0.2-7.9,1.3-11.7C109.8,137.7,109.4,141.6,108.9,145.6z"/>
	<path class="st0" d="M149.8,147.9c0,4.4-4.7,5-6.5,7.9C143.9,152.1,147.7,150.7,149.8,147.9z"/>
	<path class="st0" d="M141.5,120c4.2,2.1,6.6,4.7,7.5,9C146.4,126,144.2,123.3,141.5,120z"/>
	<path class="st0" d="M79.4,132.1c3,4.1,3.9,4.1,8.9,0.4c-1.8,3-3.1,3.8-5.5,3.5C80.8,135.7,80.3,135.2,79.4,132.1z"/>
	<path class="st0" d="M86.4,112.5c0.5-2.9,1.1-6.1,1.5-8.8C89.4,106.8,89.2,108.3,86.4,112.5z"/>
	<path class="st0" d="M126.3,117.7c1.9,2.5,3.7,5.1,6.2,8.5C128.1,123,127.2,121.9,126.3,117.7z"/>
	<path class="st0" d="M85,140.9c-0.4,2.7-0.8,5.4-1.1,8.1C82.2,146,83.2,143.4,85,140.9z"/>
	<path class="st0" d="M27.4,58.7c2.9,1.4,5.4,2.7,7.8,3.8C30.4,62.8,28.9,62.2,27.4,58.7z"/>
	<path class="st0" d="M41.1,68.7c-4.7,1.2-6.4,0.7-8.2-2.7C35.7,66.9,38.6,67.9,41.1,68.7z"/>
	<path class="st0" d="M52.8,65.2c2.6,1.3,5.1,2.6,7.7,3.8c-0.2,0.3-0.3,0.6-0.5,0.9c-3.1-0.3-5.6-1.8-7.7-3.8
		C52.5,65.8,52.6,65.5,52.8,65.2z"/>
	<path class="st0" d="M40.5,82.2c3.7,0.4,7.5,0.9,11.2,1.3C47.9,83.7,43.9,85.1,40.5,82.2L40.5,82.2z"/>
	<path class="st0" d="M111.3,112.3c0.3,2.9,0.6,5.7,0.9,8.6c-0.2,0-0.3,0-0.5,0.1c-0.5-2.9-0.9-5.8-1.4-8.7
		C110.6,112.3,111,112.3,111.3,112.3z"/>
	<path class="st0" d="M37.5,52.7c-2.9-0.6-5.8-1.2-9.1-2C32.2,49.8,35.1,50.9,37.5,52.7z"/>
	<path class="st0" d="M52,29.3c0.9,0,1.7,0,3,0c-3.8,2.1-0.3,4.2-0.7,6.4c-2.4-1.7-1.9-4.3-2.2-6.5C52.2,29.2,52,29.3,52,29.3z"/>
	<path class="st0" d="M93.2,116.9c-0.5-1.8-1-3.7-1.5-5.5c2.2,1.4,2.2,3.4,2.5,5.3C93.9,116.8,93.6,116.9,93.2,116.9z"/>
	<path class="st0" d="M120.1,37.9c-0.9,2.5-1.8,4.9-2.7,7.4c-0.1-2.9,0.7-5.4,2.8-7.3C120.2,38,120.1,37.9,120.1,37.9z"/>
	<path class="st0" d="M121,136.9c1-2.4,1.6-4.1,2.5-6.1C123.8,133.2,123.4,135,121,136.9z"/>
	<path class="st0" d="M73.6,98c-1.7,0.9-3.3,1.9-5,2.8c1.1-2,2.7-3,4.5-3.7C73.3,97.4,73.5,97.7,73.6,98z"/>
	<path class="st0" d="M97.2,167.7c-0.7-0.8-1.3-1.2-1.6-1.8c-0.1-0.2,0.6-1.1,1-1.1c0.6,0,1.2,0.5,1.7,0.8
		C98,166.2,97.7,166.8,97.2,167.7z"/>
	<path class="st0" d="M151.2,94.4c2,0.3,3.9,0.6,5.9,0.9c0,0.2-0.1,0.4-0.1,0.6c-2-0.3-3.9-0.5-5.9-0.8
		C151.2,94.9,151.2,94.6,151.2,94.4z"/>
	<path class="st0" d="M152.1,124.8c-1.1-1.8-2-3.3-3.3-5.4C151.7,121.6,151.7,121.6,152.1,124.8z"/>
	<path class="st0" d="M68.7,158c0.6,0.8,1.2,1.2,1.4,1.7c0.1,0.2-0.8,1.1-0.9,1c-0.6-0.3-1.2-0.7-1.5-1.2
		C67.6,159.4,68.2,158.8,68.7,158z"/>
	<path class="st0" d="M94.8,159.5c1.2-0.5,2.4-1,3.6-1.4c0.1,0.3,0.3,0.6,0.4,1c-1.2,0.5-2.5,1.1-3.7,1.6
		C95,160.3,94.9,159.9,94.8,159.5z"/>
	<path class="st0" d="M116.2,13.5c1.1,0.5,2.1,1.1,3.2,1.6c-0.1,0.2-0.2,0.4-0.3,0.6c-1-0.6-2.1-1.2-3.1-1.7
		C116.1,13.8,116.2,13.7,116.2,13.5z"/>
	<path class="st0" d="M126.1,27.8c-0.9,0.6-1.7,1.1-2.6,1.7c-0.2-0.2-0.3-0.5-0.5-0.7c0.8-0.6,1.7-1.2,2.5-1.8
		C125.7,27.3,125.9,27.5,126.1,27.8z"/>
	<path class="st0" d="M126.7,164.3c1.4-0.4,2.9-0.8,4.3-1.2c0.1,0.3,0.2,0.5,0.2,0.8c-1.4,0.5-2.9,0.9-4.3,1.4
		C126.9,165,126.8,164.6,126.7,164.3z"/>
	<path class="st0" d="M75.2,26.9c0,0.8,0,1.6,0,2.5c-0.1,0-0.1,0-0.2,0c0-0.8-0.1-1.6-0.1-2.4C75,27,75.1,26.9,75.2,26.9z"/>
	<path class="st0" d="M36.9,27.7c0.4-0.7,0.8-1.4,1.2-2.1c0.3,0.2,0.6,0.4,1,0.5c-0.4,0.7-0.9,1.4-1.3,2.1
		C37.5,28.1,37.2,27.9,36.9,27.7z"/>
	<path class="st0" d="M102.4,35.4c0.5,0.5,0.9,0.8,1.1,1.3c0.1,0.2-0.3,0.7-0.5,1c-0.5-0.4-1.1-0.8-1.6-1.1
		C101.7,36.3,101.9,36,102.4,35.4z"/>
	<path class="st0" d="M28.8,104.3c1.6,0,3.2,0,4.8,0c0,0.3-0.1,0.5-0.1,0.8C32,104.8,30.4,104.5,28.8,104.3
		C28.9,104.2,28.8,104.3,28.8,104.3z"/>
	<path class="st0" d="M32.2,108.1c-0.9,0.4-1.7,0.7-2.6,1.1c-0.1-0.2-0.1-0.3-0.2-0.5c0.9-0.3,1.7-0.7,2.6-1
		C32.1,107.8,32.2,108,32.2,108.1z"/>
	<path class="st0" d="M34.6,71.2c1.4-0.2,2.8-0.3,4.2-0.5c0,0.2,0,0.4,0,0.6C37.4,71.3,36,71.2,34.6,71.2
		C34.6,71.2,34.6,71.2,34.6,71.2z"/>
	<path class="st0" d="M59.3,140.1c0.4-0.7,0.8-1.3,1.2-2c0.2,0.1,0.4,0.2,0.6,0.3c-0.3,0.8-0.6,1.5-0.9,2.3
		C59.9,140.5,59.6,140.3,59.3,140.1z"/>
	<path class="st0" d="M36.2,115.1c-0.8,0.6-1.6,1.2-2.4,1.7c-0.2-0.2-0.3-0.4-0.5-0.6c0.8-0.6,1.6-1.1,2.4-1.7
		C35.9,114.7,36.1,114.9,36.2,115.1z"/>
	<path class="st0" d="M130.4,105.9c-2.4-1.2-3.8-2-5.7-2.9C127.8,102.7,127.8,102.7,130.4,105.9z"/>
</g>
</svg>
